<svg width="14" height="16" viewBox="0 0 14 16" fill="none" xmlns="http://www.w3.org/2000/svg">
<path d="M5.29375 15.077C5.20332 15.0775 5.1142 15.0553 5.03464 15.0123C4.95508 14.9693 4.88762 14.9069 4.8385 14.831C4.78068 14.7425 4.74992 14.639 4.75 14.5332V12.173H2.21875C1.69691 12.172 1.19673 11.9643 0.827728 11.5953C0.458731 11.2263 0.250991 10.7261 0.25 10.2042V2.89175C0.250793 2.36985 0.45847 1.86955 0.82751 1.50051C1.19655 1.13147 1.69685 0.92379 2.21875 0.922997H11.7813C12.3031 0.923988 12.8033 1.13173 13.1723 1.50072C13.5413 1.86972 13.749 2.36991 13.75 2.89175V10.2042C13.749 10.7261 13.5413 11.2263 13.1723 11.5953C12.8033 11.9643 12.3031 12.172 11.7813 12.173H8.6605L5.6605 14.9337C5.56044 15.0256 5.4296 15.0767 5.29375 15.077ZM2.21875 1.8605C1.94537 1.86089 1.6833 1.96967 1.48998 2.16298C1.29667 2.35629 1.1879 2.61836 1.1875 2.89175V10.2042C1.1879 10.4776 1.29667 10.7397 1.48998 10.933C1.6833 11.1263 1.94537 11.2351 2.21875 11.2355H5.21875C5.34307 11.2355 5.4623 11.2849 5.55021 11.3728C5.63812 11.4607 5.6875 11.5799 5.6875 11.7042V13.6355L8.1625 11.3592C8.24931 11.2797 8.36276 11.2355 8.4805 11.2355H11.7805C12.0539 11.2351 12.316 11.1263 12.5093 10.933C12.7026 10.7397 12.8114 10.4776 12.8118 10.2042V2.89175C12.8114 2.61849 12.7027 2.35653 12.5095 2.16325C12.3164 1.96996 12.0545 1.86109 11.7813 1.8605H2.21875Z" fill="black"/>
</svg>
