<svg width="16" height="16" viewBox="0 0 16 16" fill="none" xmlns="http://www.w3.org/2000/svg">
<g id="SVG" clip-path="url(#clip0_68_68)">
<path id="Vector" d="M13.7825 6.91176L14.7155 7.53576V13.928C14.7147 14.1366 14.6312 14.3364 14.4833 14.4834C14.3353 14.6305 14.1351 14.7129 13.9265 14.7125H10.0475C9.9778 14.7126 9.90877 14.699 9.84435 14.6724C9.77993 14.6458 9.72139 14.6067 9.67207 14.5575C9.62275 14.5082 9.58363 14.4497 9.55693 14.3853C9.53024 14.321 9.5165 14.252 9.5165 14.1823V10.802C9.5165 10.232 8.66 9.69651 7.997 9.69651C7.334 9.69651 6.4775 10.232 6.4775 10.802V14.1823C6.47692 14.3222 6.42127 14.4563 6.32261 14.5555C6.22394 14.6547 6.09018 14.7111 5.95025 14.7125H2.0735C1.97029 14.7131 1.86798 14.6933 1.77242 14.6543C1.67687 14.6153 1.58995 14.5578 1.51666 14.4851C1.44336 14.4125 1.38513 14.326 1.34529 14.2308C1.30545 14.1356 1.28479 14.0335 1.2845 13.9303V7.53576L2.2175 6.90951V13.778H5.5475V10.802C5.5475 9.65226 6.866 8.76201 8 8.76201C9.134 8.76201 10.4525 9.65226 10.4525 10.802V13.778H13.7825V6.91176ZM15.3125 5.57376L8.4845 0.991258C8.34426 0.892299 8.17708 0.838675 8.00544 0.837602C7.83381 0.836529 7.66596 0.88806 7.5245 0.985258L0.6875 5.57376L1.2095 6.35076L8 1.79076L14.7905 6.35076L15.3125 5.57376Z" fill="#0C151C"/>
</g>
<defs>
<clipPath id="clip0_68_68">
<rect width="15" height="15" fill="white" transform="translate(0.5 0.500183)"/>
</clipPath>
</defs>
</svg>
