<svg width="16" height="16" viewBox="0 0 16 16" fill="none" xmlns="http://www.w3.org/2000/svg">
<g id="SVG" clip-path="url(#clip0_68_76)">
<path id="Vector" d="M8 0.499878C6.51664 0.499878 5.0666 0.939745 3.83323 1.76386C2.59986 2.58797 1.63856 3.75931 1.07091 5.12975C0.50325 6.5002 0.354725 8.0082 0.644114 9.46305C0.933503 10.9179 1.64781 12.2543 2.6967 13.3032C3.7456 14.3521 5.08197 15.0664 6.53683 15.3558C7.99168 15.6452 9.49968 15.4966 10.8701 14.929C12.2406 14.3613 13.4119 13.4 14.236 12.1667C15.0601 10.9333 15.5 9.48324 15.5 7.99988C15.498 6.01136 14.7072 4.10486 13.3011 2.69877C11.895 1.29268 9.98852 0.501863 8 0.499878ZM8 14.5624C6.4223 14.5625 4.89797 13.991 3.70925 12.9536L10.0625 6.60038V9.71138H11V5.47838C10.9983 5.35202 10.9473 5.23132 10.8579 5.14196C10.7686 5.0526 10.6479 5.00162 10.5215 4.99988H6.2885V5.93738H9.3995L3.05 12.2906C2.07237 11.1579 1.51172 9.72486 1.46119 8.22948C1.41066 6.73409 1.8733 5.26643 2.77224 4.07034C3.67118 2.87425 4.95231 2.02174 6.40276 1.65444C7.85322 1.28714 9.38568 1.42717 10.7455 2.05127C12.1054 2.67536 13.2108 3.74595 13.8781 5.08516C14.5454 6.42436 14.7343 7.95157 14.4136 9.41303C14.0929 10.8745 13.2818 12.1822 12.1151 13.119C10.9483 14.0557 9.49624 14.565 8 14.5624Z" fill="#0C151C"/>
</g>
<defs>
<clipPath id="clip0_68_76">
<rect width="15" height="15" fill="white" transform="translate(0.5 0.500122)"/>
</clipPath>
</defs>
</svg>
